<svg xmlns="http://www.w3.org/2000/svg" viewBox="0 0 130.41 37.26"><defs><style>.logo_sistema_branca-1{fill:#ffffff}</style></defs><g id="Layer_2" data-name="Layer 2"><g data-name=""><path d="M83.83 35.77h46.57v1.49H83.83zM83.83 0h46.57v1.49H83.83zM83.83 8.94h46.57v1.49H83.83zM83.83 17.88h46.57v1.49H83.83zM83.83 26.83h46.57v1.49H83.83zM104.29 21.5l.21-.99h-3.9l-1.1 5.19h3.96l.21-1.02h-2.53l.23-1.11h2.33l.22-.98h-2.34l.23-1.09h2.48zM114.62 21.51l.2 2.18h-1.42zm-1.72 3.15h2.1l.13 1h1.64l-1-5.2H114l-3.17 5.2h1.45zM118.88 20.5l-1.12 5.2h1.49l1.09-5.2h-1.46zM108.81 24.37l-.92-3.87h-1.99l-1.11 5.2h1.28l.84-4.04.93 4.04h1.95l1.1-5.2h-1.26l-.82 3.87zM94 24.05a1.55 1.55 0 00.14 1.15 2.22 2.22 0 001.77.63c1.3 0 2.4-.53 2.65-1.69s-.54-1.31-1.2-1.49l-.92-.26c-.2-.05-.49-.15-.4-.53a.76.76 0 01.79-.55c.69 0 .57.56.53.73h1.46c.11-.56.26-1.66-1.76-1.66-1.57 0-2.37.78-2.54 1.62a1.13 1.13 0 001 1.43l1.21.33c.33.09.39.26.34.5-.13.6-.78.6-.9.6-.85 0-.74-.61-.71-.81zM102.09 29.42l-1.11 5.19h1.49l1.11-5.19h-1.49zM108.75 30.43l.21-1h-3.91l-1.1 5.18h3.96l.22-1.01h-2.53l.23-1.11h2.34l.21-.99h-2.34l.24-1.07h2.47zM110.36 29.42l-1.11 5.19h3.8l.21-1.02h-2.33l.89-4.17h-1.46zM113.4 3.59h.6c.41 0 .92 0 .79.67s-.72.7-1.07.7h-.65zm.44 2.35a3.33 3.33 0 001.36-.22 2.09 2.09 0 001.09-1.42 1.25 1.25 0 00-.45-1.41 2.16 2.16 0 00-1.29-.27h-2.38l-1.11 5.2h1.44l.4-1.88zM102.48 3.63l.21-1h-3.68l-1.1 5.19h1.44l.42-1.98h2.08l.22-.99h-2.09l.26-1.22h2.24zM110.51 3.63l.21-1h-3.91l-1.09 5.19h3.96l.21-1.01h-2.53l.23-1.1h2.33l.22-1h-2.33l.22-1.08h2.48zM103.85 2.61l-1.1 5.21h1.48l1.11-5.21h-1.49zM97.59 15.11a1.52 1.52 0 00.16 1.15 2.17 2.17 0 001.75.62c1.31 0 2.41-.52 2.66-1.68s-.54-1.31-1.19-1.5l-.92-.24c-.19-.06-.5-.15-.41-.54a.76.76 0 01.79-.55c.7 0 .57.57.54.72h1.46c.12-.55.26-1.65-1.77-1.65-1.56 0-2.36.78-2.55 1.63a1.13 1.13 0 001 1.42l1.2.33c.33.09.39.26.34.5-.13.59-.76.59-.9.59-.85 0-.73-.59-.7-.8zM107.95 12.56l.2-.99h-3.89l-1.1 5.18h3.96l.21-1h-2.53l.23-1.12h2.34l.2-.99h-2.33l.23-1.08h2.48zM108.63 15.11a1.5 1.5 0 00.14 1.15 2.19 2.19 0 001.76.62c1.3 0 2.41-.52 2.65-1.68s-.53-1.31-1.18-1.5l-.92-.24c-.21-.06-.51-.15-.43-.54a.79.79 0 01.81-.55c.69 0 .56.57.54.72h1.45c.11-.55.27-1.65-1.77-1.65-1.55 0-2.35.78-2.53 1.63a1.12 1.12 0 001 1.42l1.2.33c.33.09.4.26.35.5-.13.59-.78.59-.9.59-.86 0-.74-.59-.7-.8zM115.22 11.56l-1.11 5.2h1.48l1.11-5.2h-1.48zM.66 11.24a8.19 8.19 0 003.61.89c1.49 0 2.28-.61 2.28-1.55s-.69-1.41-2.41-2c-2.39-.85-4-2.17-4-4.26C.17 1.86 2.24 0 5.61 0a8.37 8.37 0 013.67.73l-.73 2.6a6.65 6.65 0 00-3-.69c-1.41 0-2.09.67-2.09 1.39 0 .92.79 1.32 2.66 2 2.56.97 3.73 2.29 3.73 4.31 0 2.41-1.83 4.46-5.78 4.46A9.33 9.33 0 010 13.9zM13.78 3.24a1.59 1.59 0 01-1.69-1.62A1.61 1.61 0 0113.82 0a1.61 1.61 0 011.71 1.62 1.61 1.61 0 01-1.73 1.62zM12.18 4.16h3.24v10.43h-3.24zM18.21 11.75a6.41 6.41 0 002.8.77c1 0 1.38-.32 1.38-.85s-.32-.81-1.51-1.2c-2.18-.72-3-1.9-3-3.11 0-2 1.67-3.44 4.25-3.44a6.86 6.86 0 012.92.62l-.55 2.22a5.55 5.55 0 00-2.26-.57c-.78 0-1.24.31-1.24.81s.4.76 1.68 1.19c2 .68 2.8 1.69 2.82 3.2 0 2-1.52 3.39-4.5 3.39a7.31 7.31 0 01-3.37-.75zM31.33 1.32v2.84h2.33v2.39h-2.33v3.77c0 1.26.32 1.84 1.28 1.84a3.67 3.67 0 001-.09v2.45a6.74 6.74 0 01-2.09.28 3.43 3.43 0 01-2.45-.9 4.29 4.29 0 01-.9-3.09V6.55h-1.4V4.16h1.38v-2zM42 8.19a1.88 1.88 0 00-1.81-2.11 2.15 2.15 0 00-2 2.11zm-3.82 2.22c.11 1.34 1.43 2 2.95 2a8.58 8.58 0 002.87-.47l.42 2.2a9.76 9.76 0 01-3.77.66c-3.58 0-5.65-2.05-5.65-5.31 0-2.64 1.67-5.57 5.27-5.57 3.41 0 4.73 2.63 4.73 5.21a8 8 0 01-.11 1.28zM47.11 7.49c0-1.31 0-2.39-.08-3.33h2.75l.13 1.43H50a3.63 3.63 0 013.16-1.67A2.94 2.94 0 0156 5.72a4.32 4.32 0 011.36-1.28 4 4 0 012-.52c2 0 3.52 1.41 3.52 4.53v6.14h-3.14V8.94c0-1.52-.49-2.39-1.54-2.39a1.61 1.61 0 00-1.51 1.13 3.52 3.52 0 00-.11.81v6.1h-3.15V8.74c0-1.3-.47-2.19-1.52-2.19A1.65 1.65 0 0050.4 7.7a2.13 2.13 0 00-.13.83v6.06h-3.16zM71.21 9.66c-1.7 0-3 .41-3 1.64a1.16 1.16 0 001.27 1.24 1.79 1.79 0 001.69-1.19 2.53 2.53 0 00.06-.56zm3.14 2.41a13.42 13.42 0 00.17 2.52H71.6l-.19-1.05h-.07a3.76 3.76 0 01-3 1.28 3.19 3.19 0 01-3.34-3.2c0-2.7 2.43-4 6.12-4v-.11c0-.56-.3-1.35-1.9-1.35a6.14 6.14 0 00-2.88.77l-.6-2.07a8.66 8.66 0 014-.94c3.48 0 4.57 2.05 4.57 4.5zM36.32 18.66h8.77v2.67h-5.53v3.28h5.16v2.65h-5.16v5.78h-3.24V18.66zM59 26.64a1.88 1.88 0 00-1.81-2.11 2.15 2.15 0 00-2 2.11zm-3.82 2.22c.11 1.34 1.43 2 2.95 2a8.52 8.52 0 002.87-.47l.43 2.2a9.83 9.83 0 01-3.77.66c-3.54 0-5.57-2.05-5.57-5.31 0-2.64 1.66-5.57 5.27-5.57 3.32 0 4.64 2.63 4.64 5.21a8 8 0 01-.11 1.28zM67 28.56a3.55 3.55 0 00.07.68A2 2 0 0069 30.78c1.4 0 2.24-1.18 2.24-3s-.75-2.92-2.2-2.92a2 2 0 00-1.94 1.64 2.71 2.71 0 00-.07.58zm-3.24-2.45c0-1.37 0-2.52-.08-3.5h2.81l.15 1.45a4.07 4.07 0 013.48-1.69c2.28 0 4.33 2 4.33 5.31 0 3.8-2.41 5.59-4.74 5.59a3.24 3.24 0 01-2.7-1.19v5.18h-3.22zM48.5 21.69a1.62 1.62 0 111.75-1.62 1.6 1.6 0 01-1.75 1.62zM46.9 22.61h3.24v10.43H46.9z" class="logo_sistema_branca-1"/></g></g></svg>